<svg width="24" height="25" viewBox="0 0 24 25" fill="none" xmlns="http://www.w3.org/2000/svg">
<path d="M20 6.0957H4C2.89543 6.0957 2 6.99113 2 8.0957V16.0957C2 17.2003 2.89543 18.0957 4 18.0957H20C21.1046 18.0957 22 17.2003 22 16.0957V8.0957C22 6.99113 21.1046 6.0957 20 6.0957Z" stroke="#3458FF" stroke-width="2" stroke-linecap="round" stroke-linejoin="round"/>
<path d="M12 14.0957C13.1046 14.0957 14 13.2003 14 12.0957C14 10.9911 13.1046 10.0957 12 10.0957C10.8954 10.0957 10 10.9911 10 12.0957C10 13.2003 10.8954 14.0957 12 14.0957Z" stroke="#3458FF" stroke-width="1.5" stroke-linecap="round" stroke-linejoin="round"/>
<path d="M6 12.0957H6.01M18 12.0957H18.01" stroke="#3458FF" stroke-width="1.5" stroke-linecap="round" stroke-linejoin="round"/>
</svg>