<svg width="24" height="25" viewBox="0 0 24 25" fill="none" xmlns="http://www.w3.org/2000/svg">
<path d="M15.5799 12.0956C15.5799 14.0756 13.9799 15.6756 11.9999 15.6756C10.0199 15.6756 8.41992 14.0756 8.41992 12.0956C8.41992 10.1156 10.0199 8.51562 11.9999 8.51562C13.9799 8.51562 15.5799 10.1156 15.5799 12.0956Z" stroke="#80838A" stroke-width="1.5" stroke-linecap="round" stroke-linejoin="round"/>
<path d="M12.0001 20.3654C15.5301 20.3654 18.8201 18.2854 21.1101 14.6854C22.0101 13.2754 22.0101 10.9054 21.1101 9.49543C18.8201 5.89543 15.5301 3.81543 12.0001 3.81543C8.47009 3.81543 5.18009 5.89543 2.89009 9.49543C1.99009 10.9054 1.99009 13.2754 2.89009 14.6854C5.18009 18.2854 8.47009 20.3654 12.0001 20.3654Z" stroke="#80838A" stroke-width="1.5" stroke-linecap="round" stroke-linejoin="round"/>
</svg>
