<svg width="24" height="25" viewBox="0 0 24 25" fill="none" xmlns="http://www.w3.org/2000/svg">
<path d="M16.25 21.0124V19.0203C16.25 17.9636 15.8286 16.9503 15.0784 16.2031C14.3283 15.4559 13.3109 15.0361 12.25 15.0361H6.25C5.18913 15.0361 4.17172 15.4559 3.42157 16.2031C2.67143 16.9503 2.25 17.9636 2.25 19.0203V21.0124" stroke="#4D525C" stroke-width="2" stroke-linecap="round" stroke-linejoin="round"/>
<path d="M9.25 11.0524C11.4591 11.0524 13.25 9.26858 13.25 7.06817C13.25 4.86777 11.4591 3.08398 9.25 3.08398C7.04086 3.08398 5.25 4.86777 5.25 7.06817C5.25 9.26858 7.04086 11.0524 9.25 11.0524Z" stroke="#4D525C" stroke-width="2" stroke-linecap="round" stroke-linejoin="round"/>
<path d="M19.0139 8.12695V14.1508" stroke="#4D525C" stroke-width="2" stroke-linecap="round" stroke-linejoin="round"/>
<path d="M21.8055 11.1396H16.2222" stroke="#4D525C" stroke-width="2" stroke-linecap="round" stroke-linejoin="round"/>
</svg>
