<svg width="24" height="25" viewBox="0 0 24 25" fill="none" xmlns="http://www.w3.org/2000/svg">
<path d="M15 2.0957H9C8.44772 2.0957 8 2.54342 8 3.0957V5.0957C8 5.64799 8.44772 6.0957 9 6.0957H15C15.5523 6.0957 16 5.64799 16 5.0957V3.0957C16 2.54342 15.5523 2.0957 15 2.0957Z" stroke="#3458FF" stroke-width="2" stroke-linecap="round" stroke-linejoin="round"/>
<path d="M16 4.0957H18C18.5304 4.0957 19.0391 4.30642 19.4142 4.68149C19.7893 5.05656 20 5.56527 20 6.0957V20.0957C20 20.6261 19.7893 21.1348 19.4142 21.5099C19.0391 21.885 18.5304 22.0957 18 22.0957H6C5.46957 22.0957 4.96086 21.885 4.58579 21.5099C4.21071 21.1348 4 20.6261 4 20.0957V6.0957C4 5.56527 4.21071 5.05656 4.58579 4.68149C4.96086 4.30642 5.46957 4.0957 6 4.0957H8" stroke="#3458FF" stroke-width="2" stroke-linecap="round" stroke-linejoin="round"/>
<path d="M9 14.0957H15" stroke="#3458FF" stroke-width="2" stroke-linecap="round" stroke-linejoin="round"/>
</svg>
