<svg width="24" height="25" viewBox="0 0 24 25" fill="none" xmlns="http://www.w3.org/2000/svg">
<path d="M15 12.0957H10" stroke="#4D525C" stroke-width="2" stroke-linecap="round" stroke-linejoin="round"/>
<path d="M15 8.0957H10" stroke="#4D525C" stroke-width="2" stroke-linecap="round" stroke-linejoin="round"/>
<path d="M19 17.0957V5.0957C19 4.56527 18.7893 4.05656 18.4142 3.68149C18.0391 3.30642 17.5304 3.0957 17 3.0957H4" stroke="#4D525C" stroke-width="2" stroke-linecap="round" stroke-linejoin="round"/>
<path d="M8 21.0957H20C20.5304 21.0957 21.0391 20.885 21.4142 20.5099C21.7893 20.1348 22 19.6261 22 19.0957V18.0957C22 17.8305 21.8946 17.5761 21.7071 17.3886C21.5196 17.2011 21.2652 17.0957 21 17.0957H11C10.7348 17.0957 10.4804 17.2011 10.2929 17.3886C10.1054 17.5761 10 17.8305 10 18.0957V19.0957C10 19.6261 9.78929 20.1348 9.41421 20.5099C9.03914 20.885 8.53043 21.0957 8 21.0957ZM8 21.0957C7.46957 21.0957 6.96086 20.885 6.58579 20.5099C6.21071 20.1348 6 19.6261 6 19.0957V5.0957C6 4.56527 5.78929 4.05656 5.41421 3.68149C5.03914 3.30642 4.53043 3.0957 4 3.0957C3.46957 3.0957 2.96086 3.30642 2.58579 3.68149C2.21071 4.05656 2 4.56527 2 5.0957V7.0957C2 7.36092 2.10536 7.61527 2.29289 7.80281C2.48043 7.99035 2.73478 8.0957 3 8.0957H6" stroke="#80838A" stroke-width="1.5" stroke-linecap="round" stroke-linejoin="round"/>
</svg>
