<svg width="68" height="69" viewBox="0 0 68 69" fill="none" xmlns="http://www.w3.org/2000/svg">
<circle cx="34" cy="34.0957" r="34" fill="#05A8BD" fill-opacity="0.1"/>
<path d="M48.069 23.4316H19.9311C17.9885 23.4316 16.4138 25.0064 16.4138 26.9489V41.0178C16.4138 42.9604 17.9885 44.5351 19.9311 44.5351H48.069C50.0115 44.5351 51.5862 42.9604 51.5862 41.0178V26.9489C51.5862 25.0064 50.0115 23.4316 48.069 23.4316Z" stroke="#05A8BD" stroke-width="2" stroke-linecap="round" stroke-linejoin="round"/>
<path d="M34 37.5003C35.9425 37.5003 37.5173 35.9256 37.5173 33.9831C37.5173 32.0405 35.9425 30.4658 34 30.4658C32.0575 30.4658 30.4828 32.0405 30.4828 33.9831C30.4828 35.9256 32.0575 37.5003 34 37.5003Z" stroke="#05A8BD" stroke-width="2" stroke-linecap="round" stroke-linejoin="round"/>
<path d="M23.4484 33.9834H23.466M44.5518 33.9834H44.5694" stroke="#80838A" stroke-width="1.5" stroke-linecap="round" stroke-linejoin="round"/>
</svg>
