<svg width="22" height="20" viewBox="0 0 22 20" fill="none" xmlns="http://www.w3.org/2000/svg">
<path d="M7 19.0957H19C19.5304 19.0957 20.0391 18.885 20.4142 18.5099C20.7893 18.1348 21 17.6261 21 17.0957V16.0957C21 15.8305 20.8946 15.5761 20.7071 15.3886C20.5196 15.2011 20.2652 15.0957 20 15.0957H10C9.73478 15.0957 9.48043 15.2011 9.29289 15.3886C9.10536 15.5761 9 15.8305 9 16.0957V17.0957C9 17.6261 8.78929 18.1348 8.41421 18.5099C8.03914 18.885 7.53043 19.0957 7 19.0957ZM7 19.0957C6.46957 19.0957 5.96086 18.885 5.58579 18.5099C5.21071 18.1348 5 17.6261 5 17.0957V3.0957C5 2.56527 4.78929 2.05656 4.41421 1.68149C4.03914 1.30642 3.53043 1.0957 3 1.0957C2.46957 1.0957 1.96086 1.30642 1.58579 1.68149C1.21071 2.05656 1 2.56527 1 3.0957V5.0957C1 5.36092 1.10536 5.61527 1.29289 5.80281C1.48043 5.99035 1.73478 6.0957 2 6.0957H5" stroke="#80838A" stroke-width="1.5" stroke-linecap="round" stroke-linejoin="round"/>
</svg>
