<svg xmlns="http://www.w3.org/2000/svg" width="18" height="18" viewBox="0 0 18 18">
  <g id="Group_1685" data-name="Group 1685" transform="translate(-20 -262)">
    <rect id="Rectangle_668" data-name="Rectangle 668" width="18" height="18" transform="translate(20 262)" fill="none"/>
    <g id="Group_810" data-name="Group 810" transform="translate(21.5 263.5)">
      <rect id="Rectangle_550" data-name="Rectangle 550" width="15" height="15" transform="translate(0.5 0.5)" fill="none"/>
      <g id="_23._Help" data-name="23. Help">
        <path id="Path_546" data-name="Path 546" d="M7.5,0A7.5,7.5,0,1,0,15,7.5,7.5,7.5,0,0,0,7.5,0Zm.012,11.875a.625.625,0,1,1-.006-1.25h.006a.625.625,0,1,1,0,1.25ZM8.706,7.815a1.029,1.029,0,0,0-.581.88.649.649,0,0,1-.625.652.6.6,0,0,1-.625-.6A2.277,2.277,0,0,1,8.1,6.72a1.25,1.25,0,0,0,.625-1.328,1.265,1.265,0,0,0-1-1A1.25,1.25,0,0,0,6.25,5.625a.625.625,0,0,1-1.25,0A2.5,2.5,0,1,1,8.706,7.815Z" fill="#FCC827"/>
      </g>
    </g>
  </g>
</svg>
