<svg xmlns="http://www.w3.org/2000/svg" width="18" height="18" viewBox="0 0 18 18">
  <g id="Group_1464" data-name="Group 1464" transform="translate(-25 -118)">
    <rect id="Rectangle_696" data-name="Rectangle 696" width="18" height="18" transform="translate(25 118)" fill="none"/>
    <path id="Path_1536" data-name="Path 1536" d="M-425.46,548.761h-10a2.034,2.034,0,0,0-2,2.067v12.9a1,1,0,0,0,1.394.95l4.818-2.134a1.94,1.94,0,0,1,1.576,0l4.818,2.134a1,1,0,0,0,1.394-.95v-12.9A2.034,2.034,0,0,0-425.46,548.761Zm-1.086,6.376-1.521,1.416.384,2.033a.6.6,0,0,1-.239.588.6.6,0,0,1-.35.114.6.6,0,0,1-.277-.068l-1.912-.938-1.927.94a.613.613,0,0,1-.625-.05.6.6,0,0,1-.238-.582l.4-2.037-1.516-1.4a.6.6,0,0,1-.155-.616.59.59,0,0,1,.48-.406l2.1-.381.944-1.9a.6.6,0,0,1,.536-.333.6.6,0,0,1,.536.335l.943,1.892,2.11.37a.59.59,0,0,1,.476.406A.6.6,0,0,1-426.546,555.137Z" transform="translate(464.46 -429.761)" fill="#FCC827"/>
  </g>
</svg>
