<svg xmlns="http://www.w3.org/2000/svg" width="46" height="46" viewBox="0 0 46 46">
  <g id="Group_1495" data-name="Group 1495" transform="translate(-1258 -255)">
    <g id="Ellipse_58" data-name="Ellipse 58" transform="translate(1258 255)" fill="#fff" stroke="#f0f0f0" stroke-width="1">
      <circle cx="23" cy="23" r="23" stroke="none"/>
      <circle cx="23" cy="23" r="22.5" fill="none"/>
    </g>
    <path id="Path_531" data-name="Path 531" d="M-19.191,13a.733.733,0,0,1-.75-.714.733.733,0,0,1,.75-.715h1.5V10.143a6.41,6.41,0,0,1,3.835-5.8,1.008,1.008,0,0,0,.665-.843v-1a1.01,1.01,0,0,0-.665-.843,6.41,6.41,0,0,1-3.835-5.8V-5.571h-1.5a.733.733,0,0,1-.75-.715A.733.733,0,0,1-19.191-7h16.5a.733.733,0,0,1,.75.714.733.733,0,0,1-.75.715h-1.5v1.428a6.411,6.411,0,0,1-3.836,5.8,1.006,1.006,0,0,0-.664.843v1a1.01,1.01,0,0,0,.664.843,6.411,6.411,0,0,1,3.836,5.8v1.428h1.5a.733.733,0,0,1,.75.715.733.733,0,0,1-.75.714Zm3-18.571v1.428A4.772,4.772,0,0,0-15.686-2H-6.2a4.786,4.786,0,0,0,.506-2.143V-5.571Zm4.5,9.071a2.426,2.426,0,0,1-1.517,2.131,4.987,4.987,0,0,0-2.983,4.512,6.12,6.12,0,0,1,4.5-2.114Zm1.5,0V8.029a6.12,6.12,0,0,1,4.5,2.114A4.988,4.988,0,0,0-8.675,5.631,2.424,2.424,0,0,1-10.191,3.5Z" transform="translate(1291.941 275)" fill="#479152"/>
  </g>
</svg>
