<svg xmlns="http://www.w3.org/2000/svg" width="18" height="18" viewBox="0 0 18 18">
  <g id="Group_1464" data-name="Group 1464" transform="translate(-25 -118)">
    <rect id="Rectangle_696" data-name="Rectangle 696" width="18" height="18" transform="translate(25 118)" fill="none"/>
    <g id="Group_1474" data-name="Group 1474" transform="translate(-2522 -1760)">
      <rect id="Rectangle_550" data-name="Rectangle 550" width="16" height="16" transform="translate(2548 1879)" fill="none"/>
      <path id="task_filled_icon_142859" d="M6.4,5.2A1.6,1.6,0,0,0,8,6.8h4.8a1.6,1.6,0,0,0,1.6-1.6h.8a1.6,1.6,0,0,1,1.6,1.6v9.6A1.6,1.6,0,0,1,15.2,18H5.6A1.6,1.6,0,0,1,4,16.4V6.8A1.6,1.6,0,0,1,5.6,5.2ZM8.48,3.6H8.8a1.6,1.6,0,1,1,3.2,0h.32A1.28,1.28,0,0,1,13.6,4.88V5.2a.8.8,0,0,1-.8.8H8a.8.8,0,0,1-.8-.8V4.88A1.28,1.28,0,0,1,8.48,3.6ZM8.8,9.2a.8.8,0,0,0,0,1.6H12a.8.8,0,0,0,0-1.6Zm0,3.2a.8.8,0,0,0,0,1.6H12a.8.8,0,0,0,0-1.6Z" transform="translate(2545.6 1877)" fill="#FCC827"/>
    </g>
  </g>
</svg>
