<svg xmlns="http://www.w3.org/2000/svg" width="18" height="18" viewBox="0 0 18 18">
  <g id="Group_1464" data-name="Group 1464" transform="translate(-25 -118)">
    <rect id="Rectangle_696" data-name="Rectangle 696" width="18" height="18" transform="translate(25 118)" fill="none"/>
    <path id="Path_1535" data-name="Path 1535" d="M4.9,15.026V12.572a1.093,1.093,0,0,1,1.042-1.131H8.056A1.092,1.092,0,0,1,9.1,12.572h0v2.446a.949.949,0,0,0,.9.981h1.445a2.45,2.45,0,0,0,1.8-.8A2.85,2.85,0,0,0,14,13.262V6.293a2.049,2.049,0,0,0-.66-1.522L8.432.539A2.157,2.157,0,0,0,5.516.6L.713,4.771A2.04,2.04,0,0,0,0,6.293v6.962A2.651,2.651,0,0,0,2.547,16H3.959a.871.871,0,0,0,.643-.283,1.014,1.014,0,0,0,.267-.691Z" transform="translate(27 119)" fill="#fff"/>
  </g>
</svg>
