<svg xmlns="http://www.w3.org/2000/svg" width="18" height="18" viewBox="0 0 18 18">
  <g id="Group_1464" data-name="Group 1464" transform="translate(-25 -118)">
    <rect id="Rectangle_696" data-name="Rectangle 696" width="18" height="18" transform="translate(25 118)" fill="none"/>
    <g id="Group_1476" data-name="Group 1476" transform="translate(556.942 -1135.003)">
      <path id="Path_1537" data-name="Path 1537" d="M-527.709,1256.13a6.229,6.229,0,0,1,.094-.671,1.951,1.951,0,0,1,1.748-1.436c.118-.011.237-.018.356-.018q3.7,0,7.4,0a2.006,2.006,0,0,1,2.036,1.3,2.468,2.468,0,0,1,.116.773c.008,3.241-.007,6.482.011,9.723a2,2,0,0,1-2.1,2.065,1.068,1.068,0,0,0-.143.012,6.241,6.241,0,0,1-.094.67,1.951,1.951,0,0,1-1.748,1.436c-.1.01-.206.018-.309.018q-3.738,0-7.476,0a2,2,0,0,1-2.013-1.3,2.335,2.335,0,0,1-.115-.728q-.01-4.906,0-9.812a1.963,1.963,0,0,1,2.066-2.019C-527.821,1256.14-527.767,1256.134-527.709,1256.13Zm.028,1.305c-.593-.057-.9.185-.9.7q0,4.941,0,9.881c0,.469.254.7.753.7q3.75,0,7.5,0a.661.661,0,0,0,.738-.852h-.275q-2.822,0-5.643,0a2.263,2.263,0,0,1-1.145-.248,1.913,1.913,0,0,1-1.033-1.8c.007-2.694,0-5.387,0-8.081Zm5.95,4.35c.943,0,1.887.005,2.83,0a.63.63,0,0,0,.675-.759.655.655,0,0,0-.729-.509q-2.437,0-4.876,0c-.245,0-.491-.007-.737,0a.624.624,0,0,0-.626.613.631.631,0,0,0,.7.653C-523.57,1261.789-522.651,1261.786-521.731,1261.785Zm.045,1.288h0c-.943,0-1.887-.005-2.83,0a.623.623,0,0,0-.678.632.63.63,0,0,0,.676.636q2.819.006,5.637,0a.625.625,0,0,0,.661-.712.635.635,0,0,0-.707-.556C-519.847,1263.069-520.766,1263.073-521.686,1263.073Zm-.021-5.338h0c-.484,0-.969-.01-1.453,0a.647.647,0,0,0-.687.635.641.641,0,0,0,.68.642c.976.01,1.953.008,2.929,0a.632.632,0,0,0,.627-.4.642.642,0,0,0-.667-.875C-520.754,1257.725-521.231,1257.735-521.707,1257.735Z" fill="#FCC827"/>
    </g>
  </g>
</svg>
