<svg xmlns="http://www.w3.org/2000/svg" width="18" height="18" viewBox="0 0 18 18">
  <g id="Group_1464" data-name="Group 1464" transform="translate(-25 -118)">
    <rect id="Rectangle_696" data-name="Rectangle 696" width="18" height="18" transform="translate(25 118)" fill="none"/>
    <path id="Path_1538" data-name="Path 1538" d="M-493.895,1263.771l-4.908-4.232a2.158,2.158,0,0,0-2.916.061l-4.8,4.171a2.038,2.038,0,0,0-.713,1.522v6.962a2.65,2.65,0,0,0,2.547,2.745h8.9a2.45,2.45,0,0,0,1.8-.8,2.854,2.854,0,0,0,.755-1.937v-6.969A2.053,2.053,0,0,0-493.895,1263.771Zm-6.749,9.007a1.129,1.129,0,0,1-1.129,1.128h-1.847a1.128,1.128,0,0,1-1.128-1.128v-1.848a1.128,1.128,0,0,1,1.128-1.127h1.847a1.129,1.129,0,0,1,1.129,1.128Zm0-4.921a1.13,1.13,0,0,1-1.129,1.129h-1.846a1.129,1.129,0,0,1-1.129-1.128v-1.848a1.13,1.13,0,0,1,1.128-1.128h1.847a1.131,1.131,0,0,1,1.129,1.129Zm2.8,6.045a2.041,2.041,0,0,1-1.978-2.131,2.047,2.047,0,0,1,2.106-1.967,2.05,2.05,0,0,1,1.989,2.114A2.043,2.043,0,0,1-497.845,1273.9Zm2.121-6.044a1.128,1.128,0,0,1-1.128,1.128H-498.7a1.129,1.129,0,0,1-1.128-1.128v-1.848a1.13,1.13,0,0,1,1.129-1.128h1.847a1.13,1.13,0,0,1,1.128,1.129Z" transform="translate(534.236 -1140.002)" fill="#FCC827"/>
  </g>
</svg>
