<svg xmlns="http://www.w3.org/2000/svg" width="18" height="18" viewBox="0 0 18 18">
  <g id="Group_335" data-name="Group 335" transform="translate(-1122 -869.844)">
    <rect id="Rectangle_574" data-name="Rectangle 574" width="18" height="18" transform="translate(1122 869.844)" fill="none"/>
    <path id="Path_422" data-name="Path 422" d="M-440.283,1194.18q0-4.512,0-9.024c0-1.092,0-2.184,0-3.274a1.872,1.872,0,0,0-1.842-1.9q-4.279-.015-8.558,0a1.838,1.838,0,0,0-1.829,1.643c-.048.565-.03,1.137-.031,1.705q0,2.779,0,5.557h.006q0,3.483,0,6.967a1.891,1.891,0,0,0,2.013,1.962q2.324,0,4.647,0c1.231,0,2.464,0,3.7,0a1.849,1.849,0,0,0,1.87-1.638C-440.259,1195.517-440.285,1194.847-440.283,1194.18Zm-8.26-12.579a.56.56,0,0,1,.325-.125c.6-.012,1.206-.006,1.81-.006s1.183,0,1.774,0c.287,0,.452.135.453.366s-.17.374-.446.375q-1.8,0-3.6,0a.376.376,0,0,1-.377-.226A.31.31,0,0,1-448.543,1181.6Zm2.122,15.1a.739.739,0,0,1-.729-.748.741.741,0,0,1,.741-.74.742.742,0,0,1,.738.758A.739.739,0,0,1-446.421,1196.7Zm5.2-2.613H-451.6v-10.378h10.379Z" transform="translate(1577.334 -309.978)" fill="#fcc827"/>
  </g>
</svg>
