<svg xmlns="http://www.w3.org/2000/svg" width="46" height="46" viewBox="0 0 46 46">
  <g id="Group_1494" data-name="Group 1494" transform="translate(-1090 -255)">
    <g id="Ellipse_57" data-name="Ellipse 57" transform="translate(1090 255)" fill="#fff" stroke="#f0f0f0" stroke-width="1">
      <circle cx="23" cy="23" r="23" stroke="none"/>
      <circle cx="23" cy="23" r="22.5" fill="none"/>
    </g>
    <path id="Path_530" data-name="Path 530" d="M250.062,254.75h-3.125a.938.938,0,0,0-.937.938v9.375a.938.938,0,0,0,.937.937h3.125a.938.938,0,0,0,.938-.937v-9.375A.938.938,0,0,0,250.062,254.75Zm-1.562,9.688a.938.938,0,1,1,.937-.938A.938.938,0,0,1,248.5,264.438ZM261,249.182c0,1.657-1.015,2.586-1.3,3.693h3.974A2.334,2.334,0,0,1,266,255.144a2.829,2.829,0,0,1-.76,1.922l0,.005a3.264,3.264,0,0,1-.363,3.1,3.09,3.09,0,0,1-.64,2.92,2.076,2.076,0,0,1-.24,1.743c-.8,1.146-2.774,1.162-4.445,1.162h-.111a11.214,11.214,0,0,1-4.67-1.239,6.133,6.133,0,0,0-2.057-.632.469.469,0,0,1-.46-.469v-8.35a.468.468,0,0,1,.139-.333c1.547-1.529,2.213-3.148,3.481-4.419a4.727,4.727,0,0,0,.992-2.3c.174-.723.537-2.258,1.325-2.258C259.125,246,261,246.313,261,249.182Z" transform="translate(857 22)" fill="#479152"/>
  </g>
</svg>
