<svg xmlns="http://www.w3.org/2000/svg" width="18" height="18" viewBox="0 0 18 18">
  <g id="Group_1464" data-name="Group 1464" transform="translate(-25 -118)">
    <rect id="Rectangle_696" data-name="Rectangle 696" width="18" height="18" transform="translate(25 118)" fill="none"/>
    <g id="Group_1475" data-name="Group 1475" transform="translate(-2522 -1760)">
      <rect id="Rectangle_550" data-name="Rectangle 550" width="16" height="16" transform="translate(2548 1879)" fill="none"/>
      <g id="category_icon_227335" transform="translate(2548 1879)">
        <path id="Path_353" data-name="Path 353" d="M2,5.582a5.987,5.987,0,0,1,.177-2.088A2.4,2.4,0,0,1,3.495,2.177,5.987,5.987,0,0,1,5.582,2h0a5.987,5.987,0,0,1,2.088.177A2.4,2.4,0,0,1,8.987,3.495a5.989,5.989,0,0,1,.177,2.088h0A5.989,5.989,0,0,1,8.987,7.67,2.4,2.4,0,0,1,7.67,8.987a5.989,5.989,0,0,1-2.088.177h0a5.989,5.989,0,0,1-2.088-.177A2.4,2.4,0,0,1,2.177,7.67,5.987,5.987,0,0,1,2,5.582Z" transform="translate(-2 -2)" fill="#FCC827"/>
        <path id="Path_354" data-name="Path 354" d="M2,16.627a5.987,5.987,0,0,1,.177-2.088,2.4,2.4,0,0,1,1.317-1.317,5.986,5.986,0,0,1,2.088-.177h0a5.986,5.986,0,0,1,2.088.177,2.4,2.4,0,0,1,1.317,1.317,5.989,5.989,0,0,1,.177,2.088h0a5.989,5.989,0,0,1-.177,2.088A2.4,2.4,0,0,1,7.67,20.032a5.986,5.986,0,0,1-2.088.177h0a5.986,5.986,0,0,1-2.088-.177,2.4,2.4,0,0,1-1.317-1.317A5.987,5.987,0,0,1,2,16.627Z" transform="translate(-2 -4.209)" fill="#FCC827"/>
        <path id="Path_355" data-name="Path 355" d="M13.045,16.627a5.986,5.986,0,0,1,.177-2.088,2.4,2.4,0,0,1,1.317-1.317,5.986,5.986,0,0,1,2.088-.177h0a5.986,5.986,0,0,1,2.088.177,2.4,2.4,0,0,1,1.317,1.317,5.986,5.986,0,0,1,.177,2.088h0a5.986,5.986,0,0,1-.177,2.088,2.4,2.4,0,0,1-1.317,1.317,5.986,5.986,0,0,1-2.088.177h0a5.986,5.986,0,0,1-2.088-.177,2.4,2.4,0,0,1-1.317-1.317,5.986,5.986,0,0,1-.177-2.088Z" transform="translate(-4.209 -4.209)" fill="#FCC827"/>
        <path id="Path_356" data-name="Path 356" d="M16.172,8.128a.6.6,0,1,0,1.2,0v-1.8h1.8a.6.6,0,0,0,0-1.2h-1.8v-1.8a.6.6,0,0,0-1.2,0v1.8h-1.8a.6.6,0,0,0,0,1.2h1.8Z" transform="translate(-4.355 -2.146)" fill="#FCC827" fill-rule="evenodd"/>
      </g>
    </g>
  </g>
</svg>
