<svg xmlns="http://www.w3.org/2000/svg" width="18" height="18" viewBox="0 0 18 18">
  <g id="Group_1464" data-name="Group 1464" transform="translate(-25 -118)">
    <rect id="Rectangle_696" data-name="Rectangle 696" width="18" height="18" transform="translate(25 118)" fill="none"/>
    <g id="Group_1473" data-name="Group 1473" transform="translate(-120.267 -1115.66)">
      <path id="Path_1534" data-name="Path 1534" d="M147.428,1240.983c-.12,0-.191,0-.261,0a.81.81,0,0,1-.887-.819q-.025-1.833,0-3.666c.007-.55.373-.838,1-.838h13.981c.686,0,1,.309,1.008.98,0,.788,0,1.577,0,2.365v.857c0,.857-.213,1.076-1.154,1.137v7.606c0,.767-.3,1.054-1.089,1.054h-11.5c-.794,0-1.092-.286-1.092-1.049q0-3.621,0-7.242Zm.551-1.638H160.56v-2.034H147.979Zm6.326,2.277c-.57,0-1.14,0-1.709,0-.469,0-.775.269-.768.656a.677.677,0,0,0,.759.642q1.677.006,3.356,0a.684.684,0,0,0,.77-.663.677.677,0,0,0-.761-.635C155.4,1241.619,154.854,1241.622,154.3,1241.622Z" fill="#FCC827"/>
    </g>
  </g>
</svg>
