<svg xmlns="http://www.w3.org/2000/svg" width="46" height="46" viewBox="0 0 46 46">
  <g id="Group_1496" data-name="Group 1496" transform="translate(-1425 -255)">
    <g id="Ellipse_55" data-name="Ellipse 55" transform="translate(1425 255)" fill="#fff" stroke="#f0f0f0" stroke-width="1">
      <circle cx="23" cy="23" r="23" stroke="none"/>
      <circle cx="23" cy="23" r="22.5" fill="none"/>
    </g>
    <g id="Group_838" data-name="Group 838" transform="translate(1383.533 214.487)">
      <g id="Group_837" data-name="Group 837" transform="translate(54.467 55.513)">
        <path id="Path_532" data-name="Path 532" d="M61.01,66.824a1.177,1.177,0,0,0-1.559,0,.956.956,0,0,0,0,1.43l5.08,4.658a1.131,1.131,0,0,0,.78.295h.053a1.272,1.272,0,0,0,.808-.369l12.71-13.972a.98.98,0,0,0-.134-1.43,1.209,1.209,0,0,0-1.559.123L65.229,70.693Z" transform="translate(-59.13 -57.207)" fill="#479152"/>
      </g>
    </g>
  </g>
</svg>
