<svg id="Icons" xmlns="http://www.w3.org/2000/svg" width="18" height="18" viewBox="0 0 18 18">
  <g id="Rounded">
    <g id="Maps">
      <g id="_-Round-_-Maps-_-ocal_offer" data-name="-Round-/-Maps-/-ocal_offer">
        <g id="Group_479" data-name="Group 479">
          <path id="Path" d="M18,0H0V18H18Z" fill="none" fill-rule="evenodd"/>
          <path id="_-Icon-Color" data-name="🔹-Icon-Color" d="M2.442,9.185l6.75-6.75A1.491,1.491,0,0,1,10.25,2H15.5A1.5,1.5,0,0,1,17,3.5V8.75a1.5,1.5,0,0,1-.442,1.065l-6.75,6.75A1.491,1.491,0,0,1,8.75,17a1.466,1.466,0,0,1-1.058-.442l-5.25-5.25A1.466,1.466,0,0,1,2,10.25,1.515,1.515,0,0,1,2.442,9.185ZM14.375,5.75A1.125,1.125,0,1,0,13.25,4.625,1.123,1.123,0,0,0,14.375,5.75Z" transform="translate(-0.5 -0.5)" fill="#FCC827" fill-rule="evenodd"/>
        </g>
      </g>
    </g>
  </g>
</svg>
