<svg xmlns="http://www.w3.org/2000/svg" width="46" height="46" viewBox="0 0 46 46">
  <g id="Group_835" data-name="Group 835" transform="translate(-755 -255)">
    <g id="Ellipse_54" data-name="Ellipse 54" transform="translate(755 255)" fill="#fff" stroke="#479152" stroke-width="1">
      <circle cx="23" cy="23" r="23" stroke="none"/>
      <circle cx="23" cy="23" r="22.5" fill="none"/>
    </g>
    <path id="Path_526" data-name="Path 526" d="M138.013,37.765a7.653,7.653,0,0,1,7.556,7.934l0,1.74c0,.366.217.745.778,1.389.066.077,0,0,.265.3,1.007,1.137,1.4,1.784,1.4,2.767a2.928,2.928,0,0,1-.03.466,2.248,2.248,0,0,1-.231.719c-.448.862-1.417,1.35-2.91,1.35h-2.723l-.023.087a4.194,4.194,0,0,1-8.19-.086h-2.722c-1.537,0-2.514-.5-2.942-1.39a2.28,2.28,0,0,1-.2-.687,3.126,3.126,0,0,1-.026-.458c0-.983.393-1.63,1.4-2.766.268-.3.2-.224.265-.3.561-.645.777-1.024.777-1.391V45.7A7.66,7.66,0,0,1,138.013,37.765Zm2.574,16.667H135.43a2.7,2.7,0,0,0,5.157,0Z" transform="translate(639.992 230.235)" fill="#878f92"/>
  </g>
</svg>
